HIERARCHY
ROOT Hips
{
	OFFSET 0.000000 100.481300 0.000000
	CHANNELS 6 Xposition Yposition Zposition Xrotation Yrotation Zrotation
	JOINT Spine
	{
		OFFSET -0.279200 12.230698 -2.892100
		CHANNELS 3 Xrotation Yrotation Zrotation
		JOINT Spine1
		{
			OFFSET -0.325700 14.269203 -3.374200
			CHANNELS 3 Xrotation Yrotation Zrotation
			JOINT Spine2
			{
				OFFSET -0.372300 16.307602 -0.352600
				CHANNELS 3 Xrotation Yrotation Zrotation
				JOINT Neck
				{
					OFFSET -0.418800 17.814194 8.416900
					CHANNELS 3 Xrotation Yrotation Zrotation
					JOINT Head
					{
						OFFSET 0.000000 7.031097 3.806800
						CHANNELS 3 Xrotation Yrotation Zrotation
						JOINT HeadTop_End
						{
							OFFSET 0.000000 24.646606 12.978600
							CHANNELS 3 Xrotation Yrotation Zrotation
							End Site
							{
								OFFSET 0.000000 27.854965 0.000000
							}
						}
					}
				}
				JOINT LeftShoulder
				{
					OFFSET 16.952999 14.495407 -7.737500
					CHANNELS 3 Xrotation Yrotation Zrotation
					JOINT LeftArm
					{
						OFFSET 9.308998 -2.777710 0.208600
						CHANNELS 3 Xrotation Yrotation Zrotation
						JOINT LeftForeArm
						{
							OFFSET 29.972298 0.000000 0.000000
							CHANNELS 3 Xrotation Yrotation Zrotation
							JOINT LeftHand
							{
								OFFSET 26.026505 0.000000 0.000000
								CHANNELS 3 Xrotation Yrotation Zrotation
								JOINT LeftHandThumb1
								{
									OFFSET 12.240501 -7.147949 9.207150
									CHANNELS 3 Xrotation Yrotation Zrotation
									JOINT LeftHandThumb2
									{
										OFFSET 4.138618 -2.389435 2.389433
										CHANNELS 3 Xrotation Yrotation Zrotation
										JOINT LeftHandThumb3
										{
											OFFSET 2.726913 -1.574387 1.574386
											CHANNELS 3 Xrotation Yrotation Zrotation
											JOINT LeftHandThumb4
											{
												OFFSET 3.941010 -2.275345 2.275342
												CHANNELS 3 Xrotation Yrotation Zrotation
												End Site
												{
													OFFSET -0.005798 5.087799 0.009903
												}
											}
										}
									}
								}
								JOINT LeftHandIndex1
								{
									OFFSET 24.424698 -1.985611 5.953459
									CHANNELS 3 Xrotation Yrotation Zrotation
									JOINT LeftHandIndex2
									{
										OFFSET 6.426697 0.000000 0.000000
										CHANNELS 3 Xrotation Yrotation Zrotation
										JOINT LeftHandIndex3
										{
											OFFSET 5.337898 0.000000 0.000000
											CHANNELS 3 Xrotation Yrotation Zrotation
											JOINT LeftHandIndex4
											{
												OFFSET 4.409401 0.000000 0.000000
												CHANNELS 3 Xrotation Yrotation Zrotation
												End Site
												{
													OFFSET 0.000000 4.409363 0.014373
												}
											}
										}
									}
								}
								JOINT LeftHandMiddle1
								{
									OFFSET 23.810104 0.000000 0.000000
									CHANNELS 3 Xrotation Yrotation Zrotation
									JOINT LeftHandMiddle2
									{
										OFFSET 7.176498 0.000000 0.000000
										CHANNELS 3 Xrotation Yrotation Zrotation
										JOINT LeftHandMiddle3
										{
											OFFSET 6.774902 0.000000 0.000000
											CHANNELS 3 Xrotation Yrotation Zrotation
											JOINT LeftHandMiddle4
											{
												OFFSET 5.403328 0.000000 0.000000
												CHANNELS 3 Xrotation Yrotation Zrotation
												End Site
												{
													OFFSET -0.027702 5.403244 0.017414
												}
											}
										}
									}
								}
								JOINT LeftHandRing1
								{
									OFFSET 22.908401 -0.839279 -6.020567
									CHANNELS 3 Xrotation Yrotation Zrotation
									JOINT LeftHandRing2
									{
										OFFSET 6.337502 0.000000 0.000000
										CHANNELS 3 Xrotation Yrotation Zrotation
										JOINT LeftHandRing3
										{
											OFFSET 5.779297 0.000000 0.000000
											CHANNELS 3 Xrotation Yrotation Zrotation
											JOINT LeftHandRing4
											{
												OFFSET 4.965698 0.000000 0.000000
												CHANNELS 3 Xrotation Yrotation Zrotation
												End Site
												{
													OFFSET 0.000000 4.965668 0.016186
												}
											}
										}
									}
								}
								JOINT LeftHandPinky1
								{
									OFFSET 20.037003 -1.530319 -10.950146
									CHANNELS 3 Xrotation Yrotation Zrotation
									JOINT LeftHandPinky2
									{
										OFFSET 5.254700 0.000000 0.000000
										CHANNELS 3 Xrotation Yrotation Zrotation
										JOINT LeftHandPinky3
										{
											OFFSET 4.810204 0.000000 0.000000
											CHANNELS 3 Xrotation Yrotation Zrotation
											JOINT LeftHandPinky4
											{
												OFFSET 3.647202 0.000000 0.000000
												CHANNELS 3 Xrotation Yrotation Zrotation
												End Site
												{
													OFFSET 0.000000 3.647186 0.011889
												}
											}
										}
									}
								}
							}
						}
					}
				}
				JOINT RightShoulder
				{
					OFFSET -15.141001 14.495407 -7.737500
					CHANNELS 3 Xrotation Yrotation Zrotation
					JOINT RightArm
					{
						OFFSET -9.308998 -2.777710 0.208500
						CHANNELS 3 Xrotation Yrotation Zrotation
						JOINT RightForeArm
						{
							OFFSET -29.972300 0.000000 0.000000
							CHANNELS 3 Xrotation Yrotation Zrotation
							JOINT RightHand
							{
								OFFSET -26.026505 0.000000 0.000000
								CHANNELS 3 Xrotation Yrotation Zrotation
								JOINT RightHandThumb1
								{
									OFFSET -12.240601 -7.148026 9.207092
									CHANNELS 3 Xrotation Yrotation Zrotation
									JOINT RightHandThumb2
									{
										OFFSET -4.138618 -2.389435 2.389433
										CHANNELS 3 Xrotation Yrotation Zrotation
										JOINT RightHandThumb3
										{
											OFFSET -2.726974 -1.574417 1.574421
											CHANNELS 3 Xrotation Yrotation Zrotation
											JOINT RightHandThumb4
											{
												OFFSET -3.941010 -2.275345 2.275343
												CHANNELS 3 Xrotation Yrotation Zrotation
												End Site
												{
													OFFSET 0.005814 5.087799 0.009927
												}
											}
										}
									}
								}
								JOINT RightHandIndex1
								{
									OFFSET -24.424698 -1.985657 5.953444
									CHANNELS 3 Xrotation Yrotation Zrotation
									JOINT RightHandIndex2
									{
										OFFSET -6.426697 0.000000 0.000000
										CHANNELS 3 Xrotation Yrotation Zrotation
										JOINT RightHandIndex3
										{
											OFFSET -5.337898 0.000000 0.000000
											CHANNELS 3 Xrotation Yrotation Zrotation
											JOINT RightHandIndex4
											{
												OFFSET -4.409401 0.000000 0.000000
												CHANNELS 3 Xrotation Yrotation Zrotation
												End Site
												{
													OFFSET 0.000000 4.409363 0.014408
												}
											}
										}
									}
								}
								JOINT RightHandMiddle1
								{
									OFFSET -23.810097 0.000000 0.000000
									CHANNELS 3 Xrotation Yrotation Zrotation
									JOINT RightHandMiddle2
									{
										OFFSET -7.176498 0.000000 0.000000
										CHANNELS 3 Xrotation Yrotation Zrotation
										JOINT RightHandMiddle3
										{
											OFFSET -6.774902 0.000000 0.000000
											CHANNELS 3 Xrotation Yrotation Zrotation
											JOINT RightHandMiddle4
											{
												OFFSET -5.403328 0.000000 0.000000
												CHANNELS 3 Xrotation Yrotation Zrotation
												End Site
												{
													OFFSET 0.027702 5.403244 0.017457
												}
											}
										}
									}
								}
								JOINT RightHandRing1
								{
									OFFSET -22.908302 -0.839325 -6.020576
									CHANNELS 3 Xrotation Yrotation Zrotation
									JOINT RightHandRing2
									{
										OFFSET -6.337502 0.000000 0.000000
										CHANNELS 3 Xrotation Yrotation Zrotation
										JOINT RightHandRing3
										{
											OFFSET -5.779297 0.000000 0.000000
											CHANNELS 3 Xrotation Yrotation Zrotation
											JOINT RightHandRing4
											{
												OFFSET -4.965698 0.000000 0.000000
												CHANNELS 3 Xrotation Yrotation Zrotation
												End Site
												{
													OFFSET 0.000000 4.965668 0.016226
												}
											}
										}
									}
								}
								JOINT RightHandPinky1
								{
									OFFSET -20.037003 -1.530334 -10.950259
									CHANNELS 3 Xrotation Yrotation Zrotation
									JOINT RightHandPinky2
									{
										OFFSET -5.254700 0.000000 0.000000
										CHANNELS 3 Xrotation Yrotation Zrotation
										JOINT RightHandPinky3
										{
											OFFSET -4.810204 0.000000 0.000000
											CHANNELS 3 Xrotation Yrotation Zrotation
											JOINT RightHandPinky4
											{
												OFFSET -3.647202 0.000000 0.000000
												CHANNELS 3 Xrotation Yrotation Zrotation
												End Site
												{
													OFFSET 0.000000 3.647186 0.011917
												}
											}
										}
									}
								}
							}
						}
					}
				}
			}
		}
	}
	JOINT LeftUpLeg
	{
		OFFSET 15.427100 -6.655098 0.678600
		CHANNELS 3 Xrotation Yrotation Zrotation
		JOINT LeftLeg
		{
			OFFSET 4.081073 -39.591068 13.024000
			CHANNELS 3 Xrotation Yrotation Zrotation
			JOINT LeftFoot
			{
				OFFSET -4.081074 -37.707932 -15.979700
				CHANNELS 3 Xrotation Yrotation Zrotation
				JOINT LeftToeBase
				{
					OFFSET 5.346399 -15.068900 20.645000
					CHANNELS 3 Xrotation Yrotation Zrotation
					JOINT LeftToe_End
					{
						OFFSET 2.754700 0.931300 11.300900
						CHANNELS 3 Xrotation Yrotation Zrotation
						End Site
						{
							OFFSET 0.000000 11.669021 0.000000
						}
					}
				}
			}
		}
	}
	JOINT RightUpLeg
	{
		OFFSET -15.569500 -6.655098 0.678600
		CHANNELS 3 Xrotation Yrotation Zrotation
		JOINT RightLeg
		{
			OFFSET -4.081825 -39.591045 13.023800
			CHANNELS 3 Xrotation Yrotation Zrotation
			JOINT RightFoot
			{
				OFFSET 4.081824 -37.707954 -15.979600
				CHANNELS 3 Xrotation Yrotation Zrotation
				JOINT RightToeBase
				{
					OFFSET -5.346400 -15.068900 20.645000
					CHANNELS 3 Xrotation Yrotation Zrotation
					JOINT RightToe_End
					{
						OFFSET -2.754700 0.931300 11.300900
						CHANNELS 3 Xrotation Yrotation Zrotation
						End Site
						{
							OFFSET 0.000000 11.669021 0.000000
						}
					}
				}
			}
		}
	}
}
MOTION
Frames: 4
Frame Time: 0.033333
-98.384209 31.441841 45.043877 33.717581 14.795750 9.981486 3.871980 -9.714239 15.702197 11.947794 -1.039579 9.921720 18.671794 1.414938 10.017575 11.141444 -36.249993 18.212045 -11.559081 15.546574 -6.791394 0.000001 0.000000 0.000002 11.921321 -29.946906 26.910937 -109.925966 -21.705330 -95.900043 -0.000084 -76.707669 -0.000092 35.159789 -20.578479 63.045426 -6.072501 -6.054874 4.805834 5.967888 12.597508 1.547460 -7.363979 -0.443975 13.347808 0.000001 0.000003 -0.000000 0.037387 1.578140 16.905637 0.005636 0.257331 -2.511952 0.025067 -0.542000 5.296854 0.000001 0.000002 0.000001 0.053115 2.598758 1.886590 0.124088 1.200727 -11.802016 0.076234 0.942956 -9.242546 0.000001 -0.000004 0.000001 0.014464 2.821997 -13.144026 0.336687 1.959183 -19.500089 0.380473 2.078617 -20.742926 -0.000000 -0.000003 -0.000000 -0.202013 3.469965 -28.837332 0.045611 0.730393 -7.146378 0.097910 1.067729 -10.478752 -0.000001 -0.000002 -0.000000 -13.944350 30.572203 28.307659 -25.144199 8.880880 9.062516 0.000003 41.261945 -0.000002 -12.543206 -17.100362 -91.649131 -33.381457 4.138318 13.736608 18.938040 10.142148 -18.218466 1.242571 12.839946 -15.022923 -0.000002 0.000003 -0.000002 7.022448 11.921232 5.001926 -0.000001 0.000381 -0.000004 0.152743 1.184170 -14.699175 0.000000 -0.000000 0.000000 0.063147 -3.071283 1.136721 -0.000002 -0.000774 0.009483 0.158027 1.204127 -14.952698 -0.000000 0.000001 0.000000 -0.277910 -16.475031 -1.907994 0.000001 -0.001817 0.022296 0.051746 0.693066 -8.539760 -0.000000 0.000000 0.000000 -10.536963 -24.724895 -9.628876 -0.000003 0.000012 0.000003 0.010093 0.306790 -3.768883 0.000001 -0.000001 -0.000000 37.299769 7.212887 19.066323 5.391440 -9.886164 -5.750741 -58.110512 13.497443 -11.014317 -44.515492 -0.000003 0.000004 0.000000 0.000000 -0.000001 -156.513498 26.105733 -27.715579 92.559814 2.705492 19.602156 31.053933 -0.188659 -24.412698 -10.434979 -0.000005 0.000004 0.000000 0.000001 0.000000 
-98.378685 31.721451 45.026970 33.936054 14.827009 10.452516 4.130626 -9.447910 15.786526 11.920124 -0.964677 9.920193 19.114327 1.572340 10.021533 11.017081 -36.285527 18.166997 -11.611527 15.615114 -6.688733 -0.000000 -0.000000 0.000001 12.421328 -29.735584 27.048659 -110.807983 -22.590304 -94.675936 -0.000076 -76.626437 -0.000080 33.450821 -19.709541 62.673932 -6.072916 -6.054498 4.806689 5.967720 12.597648 1.547888 -7.363863 -0.444259 13.348111 -0.000001 0.000002 -0.000000 0.021892 1.702122 15.725088 0.004282 0.224211 -2.188402 0.023343 -0.522937 5.109830 -0.000000 -0.000000 -0.000001 0.056851 2.513836 1.716815 0.109048 1.126225 -11.060157 0.065260 0.872956 -8.550917 -0.000001 -0.000001 0.000000 -0.020587 2.616105 -12.475551 0.294912 1.837060 -18.239202 0.332237 1.946608 -19.369774 0.000001 0.000000 -0.000001 -0.359841 3.035124 -27.154587 0.039579 0.680555 -6.656390 0.083358 0.985790 -9.666363 -0.000000 0.000003 0.000001 -13.958616 30.567849 28.328000 -25.735833 9.158080 8.143037 -0.000000 41.631690 -0.000009 -12.557434 -17.171029 -91.645798 -33.406288 4.118821 13.733307 18.937505 10.141485 -18.216599 1.246974 12.841205 -15.020991 -0.000003 0.000000 -0.000000 7.018448 11.944895 5.070302 -0.000000 0.000387 0.000005 0.152657 1.183841 -14.694976 -0.000000 0.000001 0.000000 0.063888 -3.064018 1.211625 0.000000 -0.000936 0.011481 0.158026 1.204127 -14.952700 -0.000001 0.000000 0.000000 -0.260335 -16.471744 -1.836796 0.000001 -0.001619 0.019957 0.051748 0.693081 -8.540002 0.000000 -0.000002 0.000000 -10.517787 -24.727723 -9.581319 -0.000001 0.000000 -0.000000 0.012782 0.345173 -4.240944 -0.000000 -0.000002 -0.000001 36.900742 7.074302 18.501690 5.167417 -10.114672 -5.820356 -57.696534 13.345876 -10.875633 -44.515283 0.000003 0.000007 -0.000003 0.000000 -0.000001 -157.249765 25.832820 -26.201424 92.558475 2.034316 18.368964 31.024126 0.017901 -23.680500 -10.435697 -0.000003 -0.000003 0.000000 -0.000002 -0.000000 
-98.374580 32.586449 45.098804 34.320693 14.591700 11.343921 4.348354 -8.766310 15.779298 11.823989 -0.541248 9.907789 19.419546 1.990283 9.960660 10.011769 -35.516915 17.312125 -11.805451 15.403849 -6.329612 0.000000 -0.000000 -0.000000 11.834212 -29.015006 25.777288 -112.543978 -23.956909 -93.045673 0.000033 -76.756033 0.000043 30.529200 -18.777013 61.294398 -6.073023 -6.054452 4.806753 5.967574 12.598082 1.547516 -7.363628 -0.444513 13.347644 0.000001 0.000000 0.000000 0.008829 1.834929 14.427313 0.003246 0.195645 -1.909443 0.021379 -0.500485 4.889886 0.000001 0.000005 0.000001 0.060414 2.421040 1.503283 0.093640 1.044362 -10.246900 0.054416 0.797545 -7.807232 -0.000002 -0.000000 -0.000002 -0.050001 2.411455 -11.749652 0.252475 1.702975 -16.865568 0.283425 1.801823 -17.877212 0.000000 -0.000001 0.000001 -0.488792 2.590814 -25.326041 0.033510 0.626500 -6.125454 0.069052 0.897704 -8.795369 0.000003 0.000002 -0.000000 -13.952894 30.559318 28.284211 -26.640292 10.595262 6.346056 -0.000007 38.327296 0.000007 -12.807705 -15.216155 -91.178818 -33.378646 4.119474 13.769025 18.927842 10.137993 -18.208332 1.251363 12.845379 -15.022975 -0.000001 -0.000001 -0.000001 7.014650 11.935225 5.070395 -0.000001 0.000343 -0.000002 0.152571 1.183519 -14.690880 -0.000000 -0.000001 -0.000000 0.063745 -3.064431 1.198984 -0.000000 -0.001059 0.013001 0.158026 1.204127 -14.952696 -0.000001 0.000001 0.000001 -0.262024 -16.468682 -1.843791 0.000001 -0.001157 0.014263 0.051744 0.693053 -8.539631 -0.000000 0.000001 0.000000 -10.501937 -24.724943 -9.555901 -0.000001 -0.000001 0.000003 0.015362 0.378390 -4.650094 -0.000000 -0.000002 -0.000001 36.465687 6.881162 17.016875 4.138217 -10.620218 -5.866434 -56.511469 13.239093 -10.283241 -44.514583 0.000007 -0.000002 -0.000001 0.000000 -0.000000 -157.781359 24.827683 -23.581399 92.368357 1.046994 16.143975 30.370190 0.314558 -22.246206 -10.436533 -0.000006 -0.000001 0.000001 -0.000002 -0.000000 
-98.357918 33.737434 45.206379 34.822241 14.220009 12.407488 4.521206 -7.836186 15.786411 11.671870 0.164890 9.878019 19.626987 2.620249 9.835404 8.154363 -34.050327 15.740560 -12.180167 15.019746 -5.616275 0.000001 0.000000 -0.000000 9.829692 -27.420022 22.440679 -114.579695 -27.421056 -91.319329 -0.000013 -77.221422 -0.000019 25.682614 -17.424035 58.332834 -6.072805 -6.054749 4.805952 5.967431 12.598762 1.546486 -7.363252 -0.444815 13.346452 -0.000002 0.000001 -0.000000 -0.000124 1.970125 13.035043 0.002505 0.171433 -1.673150 0.019245 -0.474961 4.639909 0.000000 0.000001 -0.000000 0.063382 2.324796 1.251095 0.078492 0.956672 -9.378207 0.044079 0.718164 -7.025886 -0.000002 0.000000 0.000001 -0.072771 2.213301 -10.979833 0.210915 1.559280 -15.404602 0.235749 1.646794 -16.293035 -0.000000 0.000001 0.000001 -0.584784 2.149548 -23.385198 0.027654 0.569231 -5.563604 0.055478 0.805206 -7.882840 -0.000003 0.000002 0.000001 -13.911905 30.537817 28.238707 -26.452503 12.087618 3.368743 -0.000006 34.106608 0.000007 -14.357797 -12.674912 -90.680535 -33.306055 4.142266 13.867638 18.900626 10.125171 -18.175781 1.225063 12.857623 -15.038111 -0.000004 0.000003 -0.000002 7.041093 11.892854 4.877035 -0.000001 0.000220 -0.000003 0.152480 1.183167 -14.686432 -0.000000 -0.000001 0.000000 0.061258 -3.060761 0.997630 -0.000000 -0.001126 0.013811 0.158027 1.204126 -14.952698 0.000000 -0.000001 -0.000000 -0.307569 -16.458176 -2.029306 -0.000000 -0.000156 0.001891 0.051717 0.692872 -8.537368 -0.000000 -0.000001 0.000000 -10.518538 -24.695314 -9.662818 -0.000001 0.000002 0.000002 0.017592 0.404841 -4.975911 -0.000001 0.000000 -0.000000 36.084094 6.523446 15.064880 2.695388 -11.089580 -5.811401 -54.948824 13.260723 -9.517482 -44.551087 -0.000002 0.000004 0.000001 -0.000000 0.000000 -157.848049 23.594209 -20.946186 91.923889 0.138896 13.890225 29.409193 0.607727 -20.730387 -10.437461 0.000006 0.000004 -0.000000 -0.000001 -0.000000 
